<svg xmlns="http://www.w3.org/2000/svg" viewBox="0 0 191 138.25"><g id="Layer_2" data-name="Layer 2"><g id="Layer_1-2" data-name="Layer 1"><path d="M179.55,0H11.45A11.45,11.45,0,0,0,0,11.45v89.1A11.45,11.45,0,0,0,11.45,112H41.74l-2.07,15.14c-1.32,9.61,8.38,15,14.11,7.81L72.14,112H179.55A11.45,11.45,0,0,0,191,100.55V11.45A11.45,11.45,0,0,0,179.55,0ZM88.89,47.56q0,15.94-7.06,25.2T57.75,89l-8.7-15.34Q59.67,69,63.65,64.4A18.24,18.24,0,0,0,68.1,53.5h-19V18.7H88.89Zm52.11,0q0,15.94-7.05,25.2T109.86,89l-8.7-15.34Q111.78,69,115.77,64.4a18.29,18.29,0,0,0,4.44-10.9h-19V18.7H141Z" style="fill:#fee715"/></g></g></svg>