<svg id="Layer_1" data-name="Layer 1" xmlns="http://www.w3.org/2000/svg" viewBox="0 0 191 138.25"><path d="M334.55,151H166.45A11.45,11.45,0,0,0,155,162.45v89.1A11.45,11.45,0,0,0,166.45,263h30.29l-2.07,15.14c-1.32,9.61,8.38,15,14.11,7.81L227.14,263H334.55A11.45,11.45,0,0,0,346,251.55v-89.1A11.45,11.45,0,0,0,334.55,151Zm-89.33,53.28q0,12.48-5.52,19.72t-18.85,12.71l-6.8-12q8.31-3.65,11.43-7.25a14.33,14.33,0,0,0,3.47-8.53h-14.9V181.7h31.17Zm40.78,0q0,12.48-5.52,19.72t-18.85,12.71l-6.81-12q8.32-3.65,11.44-7.25a14.33,14.33,0,0,0,3.47-8.53H254.82V181.7H286Z" transform="translate(-155 -151)" style="fill:#fee715"/></svg>