<svg xmlns="http://www.w3.org/2000/svg" viewBox="0 0 470.11 102"><g id="Layer_2" data-name="Layer 2"><g id="Layer_1-2" data-name="Layer 1"><polygon points="262.06 0 208.11 102 470.11 102 470.11 0 262.06 0" style="fill:#1c75bc"/><path d="M53.24,64.59Q52.73,67,52,71.4t-1,6.77A108.1,108.1,0,0,1,35.21,79.5a44.85,44.85,0,0,1-12.52-1.68,30.81,30.81,0,0,1-10.63-5.53,21.82,21.82,0,0,1-6.91-9A30.93,30.93,0,0,1,3.07,51.63,31.52,31.52,0,0,1,5.88,38.12a26.44,26.44,0,0,1,8.05-10,33.44,33.44,0,0,1,11.53-5.73,48.5,48.5,0,0,1,12.95-1.72,91.34,91.34,0,0,1,15.2,1.57l.08,3.49c.06,1.53.14,3.2.25,5l.29,4.73q-4.86-1.15-7.87-1.58a42,42,0,0,0-5.58-.41,22.3,22.3,0,0,0-10.09,2.24,16.9,16.9,0,0,0-7.06,6.52,18,18,0,0,0-2.58,9.47,14.8,14.8,0,0,0,2.16,8.12,14.56,14.56,0,0,0,5.84,5.23,20.07,20.07,0,0,0,9.07,1.85,47.12,47.12,0,0,0,6.42-.48A78.65,78.65,0,0,0,53.24,64.59Z" transform="translate(-3.07)" style="fill:#1c75bc"/><path d="M85.38,34.94a31.28,31.28,0,0,1,9.9,1.58,22.24,22.24,0,0,1,8,4.55A18.25,18.25,0,0,1,108.15,48a23.14,23.14,0,0,1,1.56,8.54A25.56,25.56,0,0,1,108.32,65a21,21,0,0,1-4.71,7.51,20.52,20.52,0,0,1-8.45,5.25,34.37,34.37,0,0,1-21,.21,21.65,21.65,0,0,1-8.11-4.48,18.7,18.7,0,0,1-4.9-7.06,23,23,0,0,1-1.64-8.64,23.74,23.74,0,0,1,1.59-8.64,20.32,20.32,0,0,1,5.07-7.39,23.36,23.36,0,0,1,8.58-5A32.18,32.18,0,0,1,85.38,34.94Zm-.29,12.21a8.44,8.44,0,0,0-4.74,1.37,8.33,8.33,0,0,0-3.13,4,15.2,15.2,0,0,0-1.06,5.75c0,3,.76,5.38,2.28,7a7.53,7.53,0,0,0,5.73,2.43,8.2,8.2,0,0,0,4.69-1.4A8.39,8.39,0,0,0,92,62.2a15.81,15.81,0,0,0,1.06-5.83,12.47,12.47,0,0,0-.83-4.65,7,7,0,0,0-2.72-3.32A7.87,7.87,0,0,0,85.09,47.15Z" transform="translate(-3.07)" style="fill:#1c75bc"/><path d="M162.33,78.42c-3.16-.06-5.79-.08-7.89-.08-2.61,0-5.22,0-7.85.08l-.05-5.69a24.27,24.27,0,0,1-2.53,2.8,13.11,13.11,0,0,1-2.27,1.64A15.73,15.73,0,0,1,139,78.4a20.8,20.8,0,0,1-3.48.81,28,28,0,0,1-4,.29,24.46,24.46,0,0,1-6.21-.77,13.4,13.4,0,0,1-5.15-2.59,9.42,9.42,0,0,1-3-4.16,16.4,16.4,0,0,1-.81-5.4c0-.49,0-1.27.13-2.32l.66-9.43q.29-5.19.54-11.5.17-3.86.17-7.31c3.43.06,6.35.08,8.76.08s5.12,0,8.06-.08l-1.29,15.82c-.2,2.41-.3,4-.31,4.92s0,1.46,0,1.77q0,4.36,1.77,5.89A6.21,6.21,0,0,0,139,66a7.27,7.27,0,0,0,2-.29,8.25,8.25,0,0,0,1.91-.83,6.59,6.59,0,0,0,1.46-1.25,8,8,0,0,0,1.25-1.91,12.73,12.73,0,0,0,1-2.94,46,46,0,0,0,.71-5.57c.1-1.63.25-4.46.44-8.47L148.1,36c3.57.06,6.5.08,8.79.08,2.57,0,5.16,0,7.76-.08q-1,10.54-1.49,20.06T162.33,78.42Z" transform="translate(-3.07)" style="fill:#1c75bc"/><path d="M170.46,97.85q.79-8.5,1.33-17,1-14.49,1.31-24.31t.35-19.46q8.43-1.29,13.2-1.72c3.19-.29,6.37-.44,9.56-.44a45.71,45.71,0,0,1,11,1.25,16.49,16.49,0,0,1,8.08,4.4,20.52,20.52,0,0,1,4.59,7.52,27.34,27.34,0,0,1,1.53,9.13,28.85,28.85,0,0,1-1.24,8.45,22.21,22.21,0,0,1-3.82,7.37,16.33,16.33,0,0,1-5.91,4.86A17.26,17.26,0,0,1,203,79.5a23,23,0,0,1-4.21-.4,23.78,23.78,0,0,1-7.38-2.65c-.88-.52-2-1.26-3.26-2.22l-.46,11.58q-.3,8-.3,12-4.81-.07-8.27-.08Q176.11,97.77,170.46,97.85Zm19.15-50.16c-.23,1.25-.38,2.26-.46,3.05s-.17,1.86-.25,3.2-.13,2.42-.13,3.22a13.6,13.6,0,0,0,1.06,5.71,8.5,8.5,0,0,0,2.95,3.57,7.18,7.18,0,0,0,4.05,1.27A7.27,7.27,0,0,0,201,66.4a8.75,8.75,0,0,0,3-3.93,14.94,14.94,0,0,0,1.12-5.89,10.48,10.48,0,0,0-2.35-7.15q-2.34-2.7-6.83-2.7A24.9,24.9,0,0,0,189.61,47.69Z" transform="translate(-3.07)" style="fill:#1c75bc"/><path d="M220.63,78.42l3.44-6L245.55,32l2.29-4.52q1-2,2.78-5.73,7.31.07,10.67.08,5.86,0,10.84-.08l6.06,17.31,12.33,33.31,2.4,6.06c-4.79-.06-7.7-.08-8.73-.08-2.33,0-5.75,0-10.26.08q-1.83-6.86-5.27-16.11h-20.9q-3.62,7.31-7.47,16.11c-5.16-.06-8.32-.08-9.48-.08C228.7,78.34,225.31,78.36,220.63,78.42Zm32.15-28.2h12.9q-4.81-14.62-5.27-16.12-2.75,6.09-4.65,10Z" transform="translate(-3.07)" style="fill:#fff"/><path d="M332.16,65.17c-.14,1.11-.47,3.14-1,6.11l-1.08,6.64a54.25,54.25,0,0,1-12.75,1.58,30.69,30.69,0,0,1-7.93-.92,18,18,0,0,1-7.23-3.82,16.56,16.56,0,0,1-4.77-6.68A27.44,27.44,0,0,1,295.62,58,28.79,28.79,0,0,1,297.36,48a19.57,19.57,0,0,1,5.15-7.87A17.67,17.67,0,0,1,310.07,36a37,37,0,0,1,9.18-1.06c2,0,3.94.11,5.94.31a61.81,61.81,0,0,1,7.39,1.35l.08,1c.08,1,.15,2,.19,3s.13,2.68.27,4.92l.25,3.7a32.25,32.25,0,0,0-10.51-2.08,12.37,12.37,0,0,0-5.75,1.27,8,8,0,0,0-3.65,3.65,12.31,12.31,0,0,0-1.19,5.54A12,12,0,0,0,313.33,63a6.86,6.86,0,0,0,3.39,3.24,12,12,0,0,0,5.1,1.08,23.56,23.56,0,0,0,3.35-.29c1.28-.19,2.4-.41,3.36-.64A33.8,33.8,0,0,0,332.16,65.17Z" transform="translate(-3.07)" style="fill:#fff"/><path d="M339.55,78.42q.58-5.07.87-8.35t.56-8.39c.18-3.4.34-7.17.47-11.29s.25-8.91.33-14.37c3.61.06,6.49.08,8.65.08,2,0,4.79,0,8.48-.08q-.72,7.84-1,13.79t-.4,12.58q-.17,11.79-.17,16c-3.29-.06-6.12-.08-8.5-.08S343.37,78.36,339.55,78.42Zm2.62-47.71q.25-5,.25-7.81c0-.55,0-1.3,0-2.24q5,.07,8.43.08,4.69,0,8.22-.08c-.08.86-.14,1.57-.17,2.16L358.61,28c-.05.77-.08,1.68-.08,2.74q-4.11-.09-7.89-.09T342.17,30.71Z" transform="translate(-3.07)" style="fill:#fff"/><path d="M407.45,65.88q-.54,2.49-2.08,12-4.81,1-8.1,1.27c-2.18.21-4.4.31-6.64.31a55.54,55.54,0,0,1-9.09-.69,21,21,0,0,1-7.17-2.42,17.51,17.51,0,0,1-5-4.34,18.11,18.11,0,0,1-3.09-6.16,25.55,25.55,0,0,1-1.06-7.34,26.77,26.77,0,0,1,2.11-10.39,20.71,20.71,0,0,1,5.47-7.95,19.62,19.62,0,0,1,7.7-4.06,33.05,33.05,0,0,1,8.93-1.21,36.5,36.5,0,0,1,9,1.1,16.84,16.84,0,0,1,7.28,3.84A15.62,15.62,0,0,1,410,46.07a21.28,21.28,0,0,1,1.27,7.43,29.18,29.18,0,0,1-.54,5.28l-29.11,0c0,.44,0,.84,0,1.2q0,4.47,3.19,6.57a13.87,13.87,0,0,0,7.81,2.11,34.93,34.93,0,0,0,6.25-.64A86,86,0,0,0,407.45,65.88ZM381.91,52.47h13.7c0-.47.05-.88.05-1.21a8.18,8.18,0,0,0-.77-3.69,4.85,4.85,0,0,0-2.2-2.25,7.21,7.21,0,0,0-3.22-.7,7.56,7.56,0,0,0-2.41.39,6.64,6.64,0,0,0-2.1,1.16,7.23,7.23,0,0,0-1.55,1.77,8.42,8.42,0,0,0-.92,1.93A21.79,21.79,0,0,0,381.91,52.47Z" transform="translate(-3.07)" style="fill:#fff"/><path d="M416.63,78.42,417.91,60l.42-10.59c0-1.91,0-3.86,0-5.85s0-4.53-.09-7.52c3.35.06,6,.08,8,.08,2.3,0,4.94,0,7.93-.08L434,40.71A30.6,30.6,0,0,1,436.68,38a14.08,14.08,0,0,1,2.37-1.62,11.62,11.62,0,0,1,2.78-1.08,13.09,13.09,0,0,1,3-.35,15,15,0,0,1,3.33.42c0,3,.09,5.51.2,7.47l.3,6.4a15.17,15.17,0,0,0-4.28-.67,11.33,11.33,0,0,0-4.29.73,8.91,8.91,0,0,0-3.2,2.2,11.11,11.11,0,0,0-2.22,3.67,26.84,26.84,0,0,0-1.16,7c-.22,3.18-.33,6.83-.33,10.92,0,1.44.05,3.23.16,5.36-2.68-.06-5.38-.08-8.1-.08S419.7,78.36,416.63,78.42Z" transform="translate(-3.07)" style="fill:#fff"/></g></g></svg>